<mxfile host="app.diagrams.net" modified="2021-11-29T22:01:10.290Z" agent="5.0 (Macintosh; Intel Mac OS X 10_15_7) AppleWebKit/537.36 (KHTML, like Gecko) Chrome/95.0.4638.69 Safari/537.36" etag="poE0_q8TB7G3FEkeiWon" version="15.8.3" type="github">
  <diagram id="axcDbGKzzqpzkaZa_wmz" name="Page-1">
    <mxGraphModel dx="729" dy="331" grid="1" gridSize="10" guides="1" tooltips="1" connect="1" arrows="1" fold="1" page="1" pageScale="1" pageWidth="850" pageHeight="1100" math="0" shadow="0">
      <root>
        <mxCell id="0" />
        <mxCell id="1" parent="0" />
        <mxCell id="hd0M6olZEAg69DOeF42a-37" value="" style="rounded=1;whiteSpace=wrap;html=1;fillColor=#fff2cc;strokeColor=#d6b656;" vertex="1" parent="1">
          <mxGeometry x="160" y="110" width="585" height="290" as="geometry" />
        </mxCell>
        <mxCell id="hd0M6olZEAg69DOeF42a-16" value="" style="rounded=1;whiteSpace=wrap;html=1;fillColor=#dae8fc;strokeColor=#6c8ebf;" vertex="1" parent="1">
          <mxGeometry x="400" y="260" width="320" height="120" as="geometry" />
        </mxCell>
        <mxCell id="hd0M6olZEAg69DOeF42a-1" value="spine&lt;br&gt;1.1.1.1" style="ellipse;whiteSpace=wrap;html=1;aspect=fixed;" vertex="1" parent="1">
          <mxGeometry x="320" y="120" width="80" height="80" as="geometry" />
        </mxCell>
        <mxCell id="hd0M6olZEAg69DOeF42a-10" style="rounded=0;orthogonalLoop=1;jettySize=auto;html=1;exitX=0.5;exitY=0;exitDx=0;exitDy=0;entryX=0;entryY=0.5;entryDx=0;entryDy=0;endArrow=none;endFill=0;" edge="1" parent="1" source="hd0M6olZEAg69DOeF42a-2" target="hd0M6olZEAg69DOeF42a-1">
          <mxGeometry relative="1" as="geometry" />
        </mxCell>
        <mxCell id="hd0M6olZEAg69DOeF42a-57" value="2/1" style="edgeLabel;html=1;align=center;verticalAlign=middle;resizable=0;points=[];" vertex="1" connectable="0" parent="hd0M6olZEAg69DOeF42a-10">
          <mxGeometry x="-0.772" y="1" relative="1" as="geometry">
            <mxPoint as="offset" />
          </mxGeometry>
        </mxCell>
        <mxCell id="hd0M6olZEAg69DOeF42a-58" value="2/3" style="edgeLabel;html=1;align=center;verticalAlign=middle;resizable=0;points=[];" vertex="1" connectable="0" parent="hd0M6olZEAg69DOeF42a-10">
          <mxGeometry x="0.7463" y="1" relative="1" as="geometry">
            <mxPoint as="offset" />
          </mxGeometry>
        </mxCell>
        <mxCell id="hd0M6olZEAg69DOeF42a-2" value="leaf1&lt;br&gt;2.2.2.2" style="ellipse;whiteSpace=wrap;html=1;aspect=fixed;" vertex="1" parent="1">
          <mxGeometry x="200" y="280" width="80" height="80" as="geometry" />
        </mxCell>
        <mxCell id="hd0M6olZEAg69DOeF42a-11" style="rounded=0;orthogonalLoop=1;jettySize=auto;html=1;exitX=0.5;exitY=0;exitDx=0;exitDy=0;entryX=1;entryY=0.5;entryDx=0;entryDy=0;endArrow=none;endFill=0;" edge="1" parent="1" source="hd0M6olZEAg69DOeF42a-3" target="hd0M6olZEAg69DOeF42a-1">
          <mxGeometry relative="1" as="geometry" />
        </mxCell>
        <mxCell id="hd0M6olZEAg69DOeF42a-56" value="1/1" style="edgeLabel;html=1;align=center;verticalAlign=middle;resizable=0;points=[];" vertex="1" connectable="0" parent="hd0M6olZEAg69DOeF42a-11">
          <mxGeometry x="-0.857" y="2" relative="1" as="geometry">
            <mxPoint as="offset" />
          </mxGeometry>
        </mxCell>
        <mxCell id="hd0M6olZEAg69DOeF42a-59" value="2/1" style="edgeLabel;html=1;align=center;verticalAlign=middle;resizable=0;points=[];" vertex="1" connectable="0" parent="hd0M6olZEAg69DOeF42a-11">
          <mxGeometry x="0.6833" y="1" relative="1" as="geometry">
            <mxPoint as="offset" />
          </mxGeometry>
        </mxCell>
        <mxCell id="hd0M6olZEAg69DOeF42a-52" style="edgeStyle=none;rounded=0;orthogonalLoop=1;jettySize=auto;html=1;exitX=1;exitY=0.5;exitDx=0;exitDy=0;endArrow=none;endFill=0;" edge="1" parent="1" source="hd0M6olZEAg69DOeF42a-3" target="hd0M6olZEAg69DOeF42a-4">
          <mxGeometry relative="1" as="geometry" />
        </mxCell>
        <mxCell id="hd0M6olZEAg69DOeF42a-53" value="1/3" style="edgeLabel;html=1;align=center;verticalAlign=middle;resizable=0;points=[];" vertex="1" connectable="0" parent="hd0M6olZEAg69DOeF42a-52">
          <mxGeometry x="-0.6893" relative="1" as="geometry">
            <mxPoint as="offset" />
          </mxGeometry>
        </mxCell>
        <mxCell id="hd0M6olZEAg69DOeF42a-54" value="1/3" style="edgeLabel;html=1;align=center;verticalAlign=middle;resizable=0;points=[];" vertex="1" connectable="0" parent="hd0M6olZEAg69DOeF42a-52">
          <mxGeometry x="0.6083" y="1" relative="1" as="geometry">
            <mxPoint as="offset" />
          </mxGeometry>
        </mxCell>
        <mxCell id="hd0M6olZEAg69DOeF42a-3" value="leaf2a&lt;br&gt;3.3.3.3" style="ellipse;whiteSpace=wrap;html=1;aspect=fixed;" vertex="1" parent="1">
          <mxGeometry x="440" y="280" width="80" height="80" as="geometry" />
        </mxCell>
        <mxCell id="hd0M6olZEAg69DOeF42a-12" style="rounded=0;orthogonalLoop=1;jettySize=auto;html=1;exitX=0.5;exitY=0;exitDx=0;exitDy=0;entryX=1;entryY=0.5;entryDx=0;entryDy=0;endArrow=none;endFill=0;" edge="1" parent="1" source="hd0M6olZEAg69DOeF42a-4" target="hd0M6olZEAg69DOeF42a-1">
          <mxGeometry relative="1" as="geometry" />
        </mxCell>
        <mxCell id="hd0M6olZEAg69DOeF42a-55" value="1/1" style="edgeLabel;html=1;align=center;verticalAlign=middle;resizable=0;points=[];" vertex="1" connectable="0" parent="hd0M6olZEAg69DOeF42a-12">
          <mxGeometry x="-0.8621" y="-1" relative="1" as="geometry">
            <mxPoint as="offset" />
          </mxGeometry>
        </mxCell>
        <mxCell id="hd0M6olZEAg69DOeF42a-60" value="2/2" style="edgeLabel;html=1;align=center;verticalAlign=middle;resizable=0;points=[];" vertex="1" connectable="0" parent="hd0M6olZEAg69DOeF42a-12">
          <mxGeometry x="0.749" y="-2" relative="1" as="geometry">
            <mxPoint as="offset" />
          </mxGeometry>
        </mxCell>
        <mxCell id="hd0M6olZEAg69DOeF42a-4" value="leaf2b&lt;br&gt;4.4.4.4" style="ellipse;whiteSpace=wrap;html=1;aspect=fixed;" vertex="1" parent="1">
          <mxGeometry x="600" y="280" width="80" height="80" as="geometry" />
        </mxCell>
        <mxCell id="hd0M6olZEAg69DOeF42a-15" style="edgeStyle=none;rounded=0;orthogonalLoop=1;jettySize=auto;html=1;exitX=0.5;exitY=0;exitDx=0;exitDy=0;entryX=0.5;entryY=1;entryDx=0;entryDy=0;endArrow=none;endFill=0;" edge="1" parent="1" source="hd0M6olZEAg69DOeF42a-5" target="hd0M6olZEAg69DOeF42a-2">
          <mxGeometry relative="1" as="geometry" />
        </mxCell>
        <mxCell id="hd0M6olZEAg69DOeF42a-63" value="e3" style="edgeLabel;html=1;align=center;verticalAlign=middle;resizable=0;points=[];" vertex="1" connectable="0" parent="hd0M6olZEAg69DOeF42a-15">
          <mxGeometry x="-0.7344" y="2" relative="1" as="geometry">
            <mxPoint as="offset" />
          </mxGeometry>
        </mxCell>
        <mxCell id="hd0M6olZEAg69DOeF42a-68" value="2/3" style="edgeLabel;html=1;align=center;verticalAlign=middle;resizable=0;points=[];" vertex="1" connectable="0" parent="hd0M6olZEAg69DOeF42a-15">
          <mxGeometry x="0.8212" y="1" relative="1" as="geometry">
            <mxPoint as="offset" />
          </mxGeometry>
        </mxCell>
        <mxCell id="hd0M6olZEAg69DOeF42a-5" value="server1" style="rounded=1;whiteSpace=wrap;html=1;" vertex="1" parent="1">
          <mxGeometry x="200" y="450" width="80" height="60" as="geometry" />
        </mxCell>
        <mxCell id="hd0M6olZEAg69DOeF42a-13" style="edgeStyle=none;rounded=0;orthogonalLoop=1;jettySize=auto;html=1;exitX=0.5;exitY=0;exitDx=0;exitDy=0;entryX=0.5;entryY=1;entryDx=0;entryDy=0;endArrow=none;endFill=0;" edge="1" parent="1" source="hd0M6olZEAg69DOeF42a-6" target="hd0M6olZEAg69DOeF42a-3">
          <mxGeometry relative="1" as="geometry" />
        </mxCell>
        <mxCell id="hd0M6olZEAg69DOeF42a-64" value="e3" style="edgeLabel;html=1;align=center;verticalAlign=middle;resizable=0;points=[];" vertex="1" connectable="0" parent="hd0M6olZEAg69DOeF42a-13">
          <mxGeometry x="-0.7267" y="1" relative="1" as="geometry">
            <mxPoint as="offset" />
          </mxGeometry>
        </mxCell>
        <mxCell id="hd0M6olZEAg69DOeF42a-66" value="1/2" style="edgeLabel;html=1;align=center;verticalAlign=middle;resizable=0;points=[];" vertex="1" connectable="0" parent="hd0M6olZEAg69DOeF42a-13">
          <mxGeometry x="0.8037" relative="1" as="geometry">
            <mxPoint as="offset" />
          </mxGeometry>
        </mxCell>
        <mxCell id="hd0M6olZEAg69DOeF42a-14" style="edgeStyle=none;rounded=0;orthogonalLoop=1;jettySize=auto;html=1;exitX=0.5;exitY=0;exitDx=0;exitDy=0;entryX=0.5;entryY=1;entryDx=0;entryDy=0;endArrow=none;endFill=0;" edge="1" parent="1" source="hd0M6olZEAg69DOeF42a-6" target="hd0M6olZEAg69DOeF42a-4">
          <mxGeometry relative="1" as="geometry" />
        </mxCell>
        <mxCell id="hd0M6olZEAg69DOeF42a-65" value="e4" style="edgeLabel;html=1;align=center;verticalAlign=middle;resizable=0;points=[];" vertex="1" connectable="0" parent="hd0M6olZEAg69DOeF42a-14">
          <mxGeometry x="-0.7178" y="1" relative="1" as="geometry">
            <mxPoint as="offset" />
          </mxGeometry>
        </mxCell>
        <mxCell id="hd0M6olZEAg69DOeF42a-67" value="1/2" style="edgeLabel;html=1;align=center;verticalAlign=middle;resizable=0;points=[];" vertex="1" connectable="0" parent="hd0M6olZEAg69DOeF42a-14">
          <mxGeometry x="0.743" relative="1" as="geometry">
            <mxPoint as="offset" />
          </mxGeometry>
        </mxCell>
        <mxCell id="hd0M6olZEAg69DOeF42a-6" value="server1" style="rounded=1;whiteSpace=wrap;html=1;" vertex="1" parent="1">
          <mxGeometry x="520" y="450" width="80" height="60" as="geometry" />
        </mxCell>
        <mxCell id="hd0M6olZEAg69DOeF42a-7" value="cloud" style="ellipse;shape=cloud;whiteSpace=wrap;html=1;" vertex="1" parent="1">
          <mxGeometry x="490" y="30" width="120" height="80" as="geometry" />
        </mxCell>
        <mxCell id="hd0M6olZEAg69DOeF42a-9" value="" style="endArrow=none;html=1;rounded=0;entryX=0.16;entryY=0.55;entryDx=0;entryDy=0;entryPerimeter=0;exitX=0.5;exitY=0;exitDx=0;exitDy=0;" edge="1" parent="1" source="hd0M6olZEAg69DOeF42a-1" target="hd0M6olZEAg69DOeF42a-7">
          <mxGeometry width="50" height="50" relative="1" as="geometry">
            <mxPoint x="400" y="280" as="sourcePoint" />
            <mxPoint x="450" y="230" as="targetPoint" />
          </mxGeometry>
        </mxCell>
        <mxCell id="hd0M6olZEAg69DOeF42a-61" value="2/4" style="edgeLabel;html=1;align=center;verticalAlign=middle;resizable=0;points=[];" vertex="1" connectable="0" parent="hd0M6olZEAg69DOeF42a-9">
          <mxGeometry x="-0.3592" y="2" relative="1" as="geometry">
            <mxPoint x="-29" y="7" as="offset" />
          </mxGeometry>
        </mxCell>
        <mxCell id="hd0M6olZEAg69DOeF42a-69" value="0/0" style="edgeLabel;html=1;align=center;verticalAlign=middle;resizable=0;points=[];" vertex="1" connectable="0" parent="hd0M6olZEAg69DOeF42a-9">
          <mxGeometry x="0.6987" relative="1" as="geometry">
            <mxPoint as="offset" />
          </mxGeometry>
        </mxCell>
        <mxCell id="hd0M6olZEAg69DOeF42a-17" value="10.0.2.0/24" style="text;html=1;strokeColor=none;fillColor=none;align=center;verticalAlign=middle;whiteSpace=wrap;rounded=0;" vertex="1" parent="1">
          <mxGeometry x="370" y="220" width="60" height="30" as="geometry" />
        </mxCell>
        <mxCell id="hd0M6olZEAg69DOeF42a-18" value="10.0.3.0/24" style="text;html=1;strokeColor=none;fillColor=none;align=center;verticalAlign=middle;whiteSpace=wrap;rounded=0;" vertex="1" parent="1">
          <mxGeometry x="512.5" y="190" width="60" height="30" as="geometry" />
        </mxCell>
        <mxCell id="hd0M6olZEAg69DOeF42a-19" value="10.0.1.0/24" style="text;html=1;strokeColor=none;fillColor=none;align=center;verticalAlign=middle;whiteSpace=wrap;rounded=0;" vertex="1" parent="1">
          <mxGeometry x="280" y="220" width="60" height="30" as="geometry" />
        </mxCell>
        <mxCell id="hd0M6olZEAg69DOeF42a-20" value="192.168.5.0/24" style="text;html=1;strokeColor=none;fillColor=none;align=center;verticalAlign=middle;whiteSpace=wrap;rounded=0;" vertex="1" parent="1">
          <mxGeometry x="250" y="400" width="90" height="30" as="geometry" />
        </mxCell>
        <mxCell id="hd0M6olZEAg69DOeF42a-22" value=".1" style="text;html=1;strokeColor=none;fillColor=none;align=center;verticalAlign=middle;whiteSpace=wrap;rounded=0;" vertex="1" parent="1">
          <mxGeometry x="547.5" y="350" width="25" height="30" as="geometry" />
        </mxCell>
        <mxCell id="hd0M6olZEAg69DOeF42a-23" value=".1" style="text;html=1;strokeColor=none;fillColor=none;align=center;verticalAlign=middle;whiteSpace=wrap;rounded=0;" vertex="1" parent="1">
          <mxGeometry x="250" y="360" width="25" height="30" as="geometry" />
        </mxCell>
        <mxCell id="hd0M6olZEAg69DOeF42a-24" value=".1" style="text;html=1;strokeColor=none;fillColor=none;align=center;verticalAlign=middle;whiteSpace=wrap;rounded=0;" vertex="1" parent="1">
          <mxGeometry x="297.5" y="180" width="25" height="30" as="geometry" />
        </mxCell>
        <mxCell id="hd0M6olZEAg69DOeF42a-25" value=".1" style="text;html=1;strokeColor=none;fillColor=none;align=center;verticalAlign=middle;whiteSpace=wrap;rounded=0;" vertex="1" parent="1">
          <mxGeometry x="405" y="190" width="25" height="30" as="geometry" />
        </mxCell>
        <mxCell id="hd0M6olZEAg69DOeF42a-26" value=".1" style="text;html=1;strokeColor=none;fillColor=none;align=center;verticalAlign=middle;whiteSpace=wrap;rounded=0;" vertex="1" parent="1">
          <mxGeometry x="450" y="160" width="25" height="30" as="geometry" />
        </mxCell>
        <mxCell id="hd0M6olZEAg69DOeF42a-27" value=".1" style="text;html=1;strokeColor=none;fillColor=none;align=center;verticalAlign=middle;whiteSpace=wrap;rounded=0;" vertex="1" parent="1">
          <mxGeometry x="353" y="80" width="25" height="30" as="geometry" />
        </mxCell>
        <mxCell id="hd0M6olZEAg69DOeF42a-28" value="10.0.4.0/24" style="text;html=1;strokeColor=none;fillColor=none;align=center;verticalAlign=middle;whiteSpace=wrap;rounded=0;" vertex="1" parent="1">
          <mxGeometry x="378" y="65" width="60" height="30" as="geometry" />
        </mxCell>
        <mxCell id="hd0M6olZEAg69DOeF42a-29" value=".2" style="text;html=1;strokeColor=none;fillColor=none;align=center;verticalAlign=middle;whiteSpace=wrap;rounded=0;" vertex="1" parent="1">
          <mxGeometry x="450" y="55" width="25" height="30" as="geometry" />
        </mxCell>
        <mxCell id="hd0M6olZEAg69DOeF42a-30" value=".2" style="text;html=1;strokeColor=none;fillColor=none;align=center;verticalAlign=middle;whiteSpace=wrap;rounded=0;" vertex="1" parent="1">
          <mxGeometry x="430" y="230" width="25" height="30" as="geometry" />
        </mxCell>
        <mxCell id="hd0M6olZEAg69DOeF42a-31" value=".2" style="text;html=1;strokeColor=none;fillColor=none;align=center;verticalAlign=middle;whiteSpace=wrap;rounded=0;" vertex="1" parent="1">
          <mxGeometry x="560" y="210" width="25" height="30" as="geometry" />
        </mxCell>
        <mxCell id="hd0M6olZEAg69DOeF42a-32" value=".2" style="text;html=1;strokeColor=none;fillColor=none;align=center;verticalAlign=middle;whiteSpace=wrap;rounded=0;" vertex="1" parent="1">
          <mxGeometry x="255" y="260" width="25" height="30" as="geometry" />
        </mxCell>
        <mxCell id="hd0M6olZEAg69DOeF42a-33" value=".10" style="text;html=1;strokeColor=none;fillColor=none;align=center;verticalAlign=middle;whiteSpace=wrap;rounded=0;" vertex="1" parent="1">
          <mxGeometry x="250" y="420" width="25" height="30" as="geometry" />
        </mxCell>
        <mxCell id="hd0M6olZEAg69DOeF42a-34" value=".11" style="text;html=1;strokeColor=none;fillColor=none;align=center;verticalAlign=middle;whiteSpace=wrap;rounded=0;" vertex="1" parent="1">
          <mxGeometry x="547.5" y="400" width="25" height="30" as="geometry" />
        </mxCell>
        <mxCell id="hd0M6olZEAg69DOeF42a-35" value="192.168.5.0/24" style="text;html=1;strokeColor=none;fillColor=none;align=center;verticalAlign=middle;whiteSpace=wrap;rounded=0;" vertex="1" parent="1">
          <mxGeometry x="440" y="410" width="90" height="30" as="geometry" />
        </mxCell>
        <mxCell id="hd0M6olZEAg69DOeF42a-36" value="VPC" style="text;html=1;strokeColor=none;fillColor=none;align=center;verticalAlign=middle;whiteSpace=wrap;rounded=0;" vertex="1" parent="1">
          <mxGeometry x="530" y="260" width="60" height="30" as="geometry" />
        </mxCell>
        <mxCell id="hd0M6olZEAg69DOeF42a-38" value="OSPF Area 0" style="text;html=1;strokeColor=none;fillColor=none;align=center;verticalAlign=middle;whiteSpace=wrap;rounded=0;" vertex="1" parent="1">
          <mxGeometry x="625" y="110" width="60" height="30" as="geometry" />
        </mxCell>
      </root>
    </mxGraphModel>
  </diagram>
</mxfile>
